<svg width="40" height="40" viewBox="0 0 40 40" fill="none" xmlns="http://www.w3.org/2000/svg">
<path d="M27.5 14.3833C26.8167 14.3833 26.25 13.8167 26.25 13.1333V10.8333C26.25 9.08333 25.5 7.38333 24.2 6.2C22.8833 5 21.1833 4.45 19.3833 4.61667C16.3833 4.9 13.75 7.96667 13.75 11.1667V12.7833C13.75 13.4667 13.1833 14.0333 12.5 14.0333C11.8167 14.0333 11.25 13.4667 11.25 12.7833V11.15C11.25 6.66667 14.8667 2.53333 19.15 2.11667C21.65 1.88333 24.05 2.66667 25.8833 4.35C27.7 6 28.75 8.36667 28.75 10.8333V13.1333C28.75 13.8167 28.1833 14.3833 27.5 14.3833Z" fill="black"/>
<path d="M25.0002 37.9167H15.0002C7.30019 37.9167 5.86685 34.3333 5.50019 30.85L4.25019 20.8667C4.06685 19.0667 4.00019 16.4833 5.75019 14.55C7.25019 12.8833 9.73352 12.0833 13.3335 12.0833H26.6669C30.2835 12.0833 32.7669 12.9 34.2502 14.55C35.9835 16.4833 35.9335 19.0667 35.7502 20.8333L34.5002 30.85C34.1335 34.3333 32.7002 37.9167 25.0002 37.9167ZM13.3335 14.5833C10.5169 14.5833 8.58352 15.1333 7.60019 16.2333C6.78352 17.1333 6.51685 18.5167 6.73352 20.5833L7.98352 30.5667C8.26685 33.2333 9.00019 35.4333 15.0002 35.4333H25.0002C31.0002 35.4333 31.7335 33.25 32.0169 30.6L33.2669 20.5833C33.4835 18.55 33.2169 17.1667 32.4002 16.25C31.4169 15.1333 29.4835 14.5833 26.6669 14.5833H13.3335Z" fill="black"/>
<path d="M25.6999 21.9167C24.7666 21.9167 24.0166 21.1667 24.0166 20.25C24.0166 19.3333 24.7666 18.5833 25.6833 18.5833C26.5999 18.5833 27.3499 19.3333 27.3499 20.25C27.3499 21.1667 26.6166 21.9167 25.6999 21.9167Z" fill="black"/>
<path d="M14.0329 21.9167C13.0996 21.9167 12.3496 21.1667 12.3496 20.25C12.3496 19.3333 13.0996 18.5833 14.0163 18.5833C14.9329 18.5833 15.6829 19.3333 15.6829 20.25C15.6829 21.1667 14.9496 21.9167 14.0329 21.9167Z" fill="black"/>
</svg>
