<svg width="30" height="42" viewBox="0 0 30 42" fill="none" xmlns="http://www.w3.org/2000/svg">
<path d="M2.42566 32.1386C5.06291 38.1933 11.3629 40.2116 14.2931 40.7882H16.0513C16.0513 40.7882 20.4467 40.3557 23.0839 37.7608C25.2816 36.0309 27.7461 31.7061 28.1856 29.9762C28.6252 28.2463 29.677 24.3539 28.3584 20.4616C27.0397 16.5693 23.6961 11.3795 23.6961 11.3795C23.6961 11.3795 24.5752 16.2527 24.5752 17.8667C24.5752 20.0291 22.6443 25.6514 22.6443 25.6514C22.6443 25.6514 23.6961 17.0018 20.1798 15.2719C17.3699 13.5419 16.4908 10.5146 16.4908 8.78465C16.4908 7.05473 16.4908 4.45984 18.8612 1C13.5868 1.43248 9.35121 7.48721 8.31233 9.21713C7.27345 10.9471 6.38146 17.0018 7.26054 20.8941C5.06285 17.8667 4.62331 13.5419 4.62331 13.5419C4.62331 13.5419 1.98611 18.5876 1.54658 20.0292C1.10704 21.3266 0.235551 27.1104 2.42566 32.1386Z" fill="#FF0000" stroke="#FF0000" stroke-width="0.5"/>
<path d="M22.9603 35.1471C21.3043 39.0959 17.3485 40.4121 15.5086 40.7882H14.4046C14.4046 40.7882 11.6447 40.5061 9.98876 38.8138C8.60881 37.6856 7.06131 34.8651 6.78532 33.7369C6.50933 32.6087 5.84891 30.0702 6.67688 27.5317C8.71585 22.2533 9.60433 21.6086 9.60433 21.6086C9.60433 21.6086 9.05235 23.98 9.05235 25.8394C9.05235 27.2497 10.2648 30.9164 10.2648 30.9164C10.2648 30.9164 9.60433 25.2753 11.8123 24.1471C13.5766 23.0189 14.1286 21.0445 14.1286 19.9163C14.1286 18.7881 14.1286 17.0958 12.6402 14.8394C15.9521 15.1214 19.264 20.1984 19.264 20.1984C20.3679 22.1727 20.4764 25.2753 19.9244 27.8138C21.3044 25.8394 21.5804 23.0189 21.5804 23.0189C21.5804 23.0189 23.2363 26.3095 23.5123 27.2497C23.7883 28.0958 24.3355 31.8679 22.9603 35.1471Z" fill="#FF5C00" stroke="#FF5C00" stroke-width="0.5"/>
<path d="M10.2834 37.5916C11.1941 39.8292 13.3698 40.5751 14.3818 40.7882H14.989C14.989 40.7882 16.5069 40.6284 17.4177 39.6694C18.1767 39.0301 19.0278 37.4318 19.1796 36.7925C19.3314 36.1531 19.6946 34.7147 19.2392 33.2762C18.1178 30.2851 17.6291 29.9198 17.6291 29.9198C17.6291 29.9198 17.9327 31.2636 17.9327 32.3172C17.9327 33.1164 17.2659 35.1942 17.2659 35.1942C17.2659 35.1942 17.6291 31.9976 16.4148 31.3582C15.4444 30.7189 15.1408 29.6001 15.1408 28.9608C15.1408 28.3215 15.1408 27.3625 15.9594 26.0839C14.1379 26.2437 12.3163 29.1206 12.3163 29.1206C11.7092 30.2394 11.6495 31.9976 11.9531 33.436C11.1941 32.3172 11.0423 30.7189 11.0423 30.7189C11.0423 30.7189 10.1316 32.5836 9.97978 33.1164C9.82798 33.5959 9.52701 35.7334 10.2834 37.5916Z" fill="#FFC700" stroke="#FFC700" stroke-width="0.5"/>
<path d="M15.065 41V11.3795H1.87891H28.2511" stroke="black" stroke-width="2"/>
<path d="M15.065 41V11.3795H1.87891H28.2511" stroke="white" stroke-width="0.5"/>
</svg>
